<!DOCTYPE svg PUBLIC "-//W3C//DTD SVG 1.1//EN" "http://www.w3.org/Graphics/SVG/1.1/DTD/svg11.dtd">

<svg version="1.1" id="_x32_" xmlns="http://www.w3.org/2000/svg" xmlns:xlink="http://www.w3.org/1999/xlink" viewBox="-51.2 -51.2 614.40 614.40" xml:space="preserve" width="800px" height="800px" fill="#000000" stroke="#000000" stroke-width="0.00512" transform="matrix(-1, 0, 0, 1, 0, 0)rotate(0)">

<g id="SVGRepo_bgCarrier" stroke-width="0" transform="translate(0,0), scale(1)">

<path transform="translate(-51.2, -51.2), scale(38.4)" fill="#b4bdc0" d="M9.166.33a2.25 2.25 0 00-2.332 0l-5.25 3.182A2.25 2.25 0 00.5 5.436v5.128a2.25 2.25 0 001.084 1.924l5.25 3.182a2.25 2.25 0 002.332 0l5.25-3.182a2.25 2.25 0 001.084-1.924V5.436a2.25 2.25 0 00-1.084-1.924L9.166.33z" strokewidth="0"/>

</g>

<g id="SVGRepo_tracerCarrier" stroke-linecap="round" stroke-linejoin="round" stroke="#CCCCCC" stroke-width="3.072"/>

<g id="SVGRepo_iconCarrier"> <style type="text/css"> .st0{fill:#000000;} </style> <g> <path class="st0" d="M463.428,243.633l-36.594-3.25v-0.006l-56.189-5v0.013l-37.824-3.379v-59.42h-49.434h-5.34h-17.84v-44.298 H305.2v-5.279V94.349v-7.902l-44.993-12.562h-10.463v98.706h-15.776h-5.348h-49.428v59.42l-39.796,3.529l-48.157,4.291v-0.013 l-51.924,4.618v0.013L0,247.945v148.358l185.033,28.283v1.457l27.214,6.738c14.312,3.535,29.026,5.334,43.753,5.334 c14.741,0,29.455-1.798,43.757-5.334l27.22-6.738v-1.424L512,396.309V247.945L463.428,243.633z M187.05,410.717L14.032,384.259 v-79.475H187.05V410.717z M187.05,296.391H14.032v-35.612l20.518-1.819v15.566l18.798-1.117V257.27l23.866-2.126v16.832 l21.985-1.321V253.21l28.134-2.514v18.298l26.09-1.56v-19.06l33.628-2.983V296.391z M312.944,415.07l-16.556,4.094 c-26.522,6.56-54.244,6.56-80.769,0l-16.556-4.094V245.404h113.882V415.07z M318.793,206.664v26.717h-26.72h-22.707h-26.72h-22.712 h-18.702h-8.018v-46.757h26.719v20.04h22.712v-20.04h26.72v20.04h22.707v-20.04h26.72V206.664z M497.974,384.266l-173,26.464 V304.784h173V384.266z M497.974,296.412h-173v-51.015l33.627,3.004v19.033l26.066,1.567v-18.297l28.137,2.507v17.473l21.982,1.294 v-16.804l23.889,2.125v16.11l18.774,1.124V258.96l20.524,1.826V296.412z"/> <rect x="245.986" y="275.833" class="st0" width="20.034" height="49.1"/> <polygon class="st0" points="313.564,94.349 313.564,123.014 353.326,114.689 "/> </g> </g>

</svg>
